<svg id="Layer_4_copy" data-name="Layer 4 copy" xmlns="http://www.w3.org/2000/svg" viewBox="0 0 330 330"><defs><style>.cls-1{fill:#028ace;}.cls-2{fill:#fff;}</style></defs><title>blue-circle_new</title><circle class="cls-1" cx="164.45" cy="165.72" r="113.72"/><path class="cls-2" d="M83.25,235.57c-.49-.56-1-1.14-1.47-1.71a1.36,1.36,0,1,1,2.09-1.75c1.14,1.36,2.34,2.71,3.54,4a1.36,1.36,0,1,1-2,1.85C84.69,237.19,84,236.38,83.25,235.57Zm-5.83-7.29-.08-.09c-1.07-1.48-2.12-3-3.12-4.52a1.36,1.36,0,0,1,2.28-1.49c1,1.48,2,3,3,4.4a1.36,1.36,0,0,1-2.12,1.7ZM90.4,243a1.36,1.36,0,0,1,2-1.89c1.29,1.22,2.63,2.43,4,3.58a1.36,1.36,0,1,1-1.76,2.07c-1.39-1.18-2.76-2.41-4.09-3.66ZM70.64,217.74a.94.94,0,0,1-.16-.23c-.9-1.58-1.76-3.22-2.57-4.85a1.36,1.36,0,1,1,2.44-1.21c.79,1.59,1.63,3.18,2.5,4.73a1.36,1.36,0,0,1-2.21,1.56ZM100,251.05a1.37,1.37,0,0,1,1.84-2c1.43,1.06,2.91,2.1,4.38,3.08a1.36,1.36,0,1,1-1.51,2.27c-1.51-1-3-2.07-4.49-3.15A2.09,2.09,0,0,1,100,251.05ZM65.16,206.47a1.31,1.31,0,0,1-.24-.37c-.69-1.69-1.36-3.42-2-5.14a1.36,1.36,0,1,1,2.57-.91c.59,1.68,1.24,3.36,1.92,5a1.36,1.36,0,0,1-2.28,1.42Zm45.34,51.42a1.36,1.36,0,0,1,1.7-2.08c1.54.88,3.13,1.73,4.72,2.53a1.37,1.37,0,0,1-1.23,2.44c-1.63-.82-3.26-1.7-4.84-2.6A1.42,1.42,0,0,1,110.5,257.89ZM61.05,194.61a1.29,1.29,0,0,1-.28-.53c-.5-1.75-1-3.55-1.35-5.33a1.36,1.36,0,0,1,1-1.63,1.38,1.38,0,0,1,1.63,1c.39,1.74.83,3.49,1.31,5.2a1.37,1.37,0,0,1-.94,1.68A1.39,1.39,0,0,1,61.05,194.61Zm60.68,68.83a1.37,1.37,0,0,1-.23-1.43,1.35,1.35,0,0,1,1.78-.72c1.64.68,3.31,1.34,5,1.94a1.37,1.37,0,0,1-.93,2.57c-1.71-.62-3.43-1.3-5.11-2A1.48,1.48,0,0,1,121.73,263.44ZM58.39,182.35a1.3,1.3,0,0,1-.32-.69c-.28-1.8-.52-3.63-.71-5.45a1.36,1.36,0,0,1,1.22-1.49,1.35,1.35,0,0,1,1.49,1.21c.19,1.77.42,3.56.69,5.32a1.36,1.36,0,0,1-2.37,1.1Zm75.14,85.26a1.37,1.37,0,0,1,1.4-2.21c1.71.5,3.45,1,5.18,1.35a1.37,1.37,0,0,1-.62,2.66c-1.77-.42-3.56-.88-5.31-1.39A1.34,1.34,0,0,1,133.53,267.61ZM57.19,169.87a1.4,1.4,0,0,1-.33-.85c-.07-1.82-.09-3.67-.06-5.49a1.37,1.37,0,0,1,2.73,0c0,1.78,0,3.58,0,5.35a1.37,1.37,0,0,1-2.39,1Zm88.56,100.49a1.35,1.35,0,0,1-.32-1.12,1.36,1.36,0,0,1,1.57-1.12c1.75.29,3.53.53,5.3.73a1.36,1.36,0,1,1-.31,2.71c-1.81-.2-3.64-.46-5.43-.75A1.34,1.34,0,0,1,145.75,270.36Zm-88.27-113a1.39,1.39,0,0,1-.33-1c.15-1.82.34-3.65.58-5.46a1.37,1.37,0,0,1,2.71.36c-.24,1.76-.43,3.55-.58,5.32a1.37,1.37,0,0,1-1.47,1.25A1.34,1.34,0,0,1,57.48,157.34ZM158.21,271.66a1.37,1.37,0,0,1,1.09-2.26c1.78.08,3.58.11,5.35.1a1.37,1.37,0,0,1,0,2.73c-1.82,0-3.67,0-5.49-.11A1.38,1.38,0,0,1,158.21,271.66Zm-99-126.73a1.38,1.38,0,0,1-.31-1.17c.36-1.78.78-3.58,1.23-5.34a1.36,1.36,0,1,1,2.64.67c-.44,1.72-.84,3.47-1.19,5.21A1.37,1.37,0,0,1,60,145.37,1.33,1.33,0,0,1,59.23,144.93ZM170.75,271.48a1.41,1.41,0,0,1-.34-.8,1.37,1.37,0,0,1,1.26-1.46c1.78-.13,3.57-.31,5.33-.53a1.37,1.37,0,1,1,.34,2.71c-1.81.22-3.65.41-5.47.54A1.36,1.36,0,0,1,170.75,271.48ZM62.44,132.82a1.33,1.33,0,0,1-.27-1.32c.56-1.73,1.19-3.47,1.84-5.16a1.36,1.36,0,0,1,2.54,1c-.64,1.65-1.24,3.35-1.79,5a1.36,1.36,0,0,1-1.72.87A1.27,1.27,0,0,1,62.44,132.82Zm120.74,137a1.29,1.29,0,0,1-.31-.63,1.36,1.36,0,0,1,1.08-1.6c1.74-.34,3.5-.73,5.23-1.16a1.36,1.36,0,1,1,.65,2.65c-1.76.44-3.57.83-5.36,1.18A1.36,1.36,0,0,1,183.18,269.82ZM67,121.19a1.39,1.39,0,0,1-.21-1.48c.77-1.64,1.59-3.29,2.45-4.9a1.36,1.36,0,1,1,2.4,1.28c-.83,1.56-1.63,3.17-2.38,4.78a1.36,1.36,0,0,1-1.81.65A1.38,1.38,0,0,1,67,121.19ZM195.33,266.7a1.25,1.25,0,0,1-.27-.48,1.36,1.36,0,0,1,.88-1.71c1.7-.55,3.4-1.14,5.06-1.77a1.36,1.36,0,1,1,1,2.55c-1.71.64-3.45,1.26-5.2,1.81A1.34,1.34,0,0,1,195.33,266.7ZM73,110.17a1.35,1.35,0,0,1-.13-1.61c1-1.55,2-3.09,3-4.59a1.36,1.36,0,1,1,2.23,1.56c-1,1.45-2,3-2.94,4.47a1.36,1.36,0,0,1-1.87.44A1.63,1.63,0,0,1,73,110.17Zm134,152a1.33,1.33,0,0,1-.21-.33,1.36,1.36,0,0,1,.67-1.8c1.62-.74,3.23-1.54,4.8-2.36a1.37,1.37,0,0,1,1.27,2.42c-1.62.84-3.28,1.65-4.93,2.41A1.36,1.36,0,0,1,207,262.16ZM80.23,99.94a1.37,1.37,0,0,1,0-1.75c1.13-1.42,2.33-2.83,3.54-4.19a1.35,1.35,0,0,1,1.92-.12,1.37,1.37,0,0,1,.11,1.93c-1.18,1.32-2.34,2.7-3.45,4.09a1.36,1.36,0,0,1-1.91.21A1,1,0,0,1,80.23,99.94ZM218.08,256.27a1.33,1.33,0,0,1-.14-.19,1.36,1.36,0,0,1,.45-1.87c1.51-.93,3-1.91,4.49-2.92a1.38,1.38,0,0,1,1.9.36,1.35,1.35,0,0,1-.36,1.89c-1.5,1-3,2-4.6,3A1.37,1.37,0,0,1,218.08,256.27ZM88.63,90.64a1.36,1.36,0,0,1,.07-1.87c1.3-1.28,2.65-2.54,4-3.75a1.36,1.36,0,0,1,1.92.11h0a1.37,1.37,0,0,1-.12,1.92c-1.33,1.18-2.64,2.41-3.91,3.66a1.37,1.37,0,0,1-1.93,0ZM228.36,249.1l-.05,0a1.38,1.38,0,0,1,.23-1.92c1.39-1.1,2.78-2.25,4.12-3.42l.18-.15a1.36,1.36,0,0,1,1.92.12h0a1.35,1.35,0,0,1-.12,1.91l-.19.17c-1.37,1.2-2.79,2.38-4.22,3.5A1.37,1.37,0,0,1,228.36,249.1ZM98.06,82.39a.18.18,0,0,1,0-.07,1.35,1.35,0,0,1,.24-1.91c1.44-1.12,2.92-2.21,4.42-3.26a1.35,1.35,0,0,1,1.89.34,1.37,1.37,0,0,1-.33,1.9c-1.46,1-2.91,2.08-4.31,3.17A1.36,1.36,0,0,1,98.06,82.39ZM237.9,240.61a1.36,1.36,0,0,1,.06-1.86c1.26-1.26,2.5-2.57,3.68-3.88a1.36,1.36,0,0,1,2,1.82c-1.22,1.35-2.49,2.69-3.78,4a1.37,1.37,0,0,1-1.93,0ZM108.39,75.29a1.39,1.39,0,0,1-.15-.19,1.36,1.36,0,0,1,.47-1.87c1.56-1,3.17-1.86,4.77-2.72a1.37,1.37,0,0,1,1.29,2.41c-1.57.83-3.13,1.72-4.66,2.64A1.34,1.34,0,0,1,108.39,75.29ZM246.21,231.23a1.37,1.37,0,0,1-.05-1.74c1.1-1.39,2.18-2.84,3.2-4.29a1.36,1.36,0,1,1,2.23,1.57c-1.05,1.49-2.16,3-3.28,4.41a1.38,1.38,0,0,1-1.92.23C246.33,231.35,246.26,231.29,246.21,231.23ZM119.48,69.47a1.3,1.3,0,0,1-.21-.34,1.36,1.36,0,0,1,.68-1.8c1.66-.75,3.37-1.47,5.07-2.13a1.36,1.36,0,1,1,1,2.54c-1.66.65-3.32,1.34-4.94,2.08A1.38,1.38,0,0,1,119.48,69.47ZM253.35,220.93a1.37,1.37,0,0,1-.14-1.6c.92-1.52,1.82-3.08,2.66-4.64a1.36,1.36,0,1,1,2.4,1.29c-.86,1.61-1.78,3.21-2.73,4.77a1.36,1.36,0,0,1-1.87.45A1.18,1.18,0,0,1,253.35,220.93ZM131.21,65a1.47,1.47,0,0,1-.27-.49,1.37,1.37,0,0,1,.89-1.71c1.75-.55,3.52-1.06,5.29-1.51a1.36,1.36,0,0,1,.68,2.64c-1.72.44-3.45.94-5.15,1.47A1.38,1.38,0,0,1,131.21,65Zm128,144.86a1.36,1.36,0,0,1-.22-1.46c.74-1.62,1.44-3.27,2.09-4.92a1.36,1.36,0,1,1,2.54,1c-.67,1.69-1.39,3.39-2.15,5a1.36,1.36,0,0,1-1.8.67A1.32,1.32,0,0,1,259.21,209.87ZM143.39,62a1.28,1.28,0,0,1-.31-.64,1.36,1.36,0,0,1,1.09-1.59c1.79-.34,3.61-.63,5.42-.88a1.37,1.37,0,0,1,.37,2.71c-1.77.23-3.55.52-5.29.85A1.37,1.37,0,0,1,143.39,62ZM263.71,198.19a1.34,1.34,0,0,1-.27-1.31c.53-1.69,1-3.42,1.49-5.14a1.36,1.36,0,1,1,2.63.7c-.46,1.76-1,3.53-1.53,5.26a1.36,1.36,0,0,1-2.32.49ZM155.83,60.4a1.34,1.34,0,0,1-.33-.8,1.36,1.36,0,0,1,1.27-1.45c1.82-.12,3.66-.2,5.49-.23a1.37,1.37,0,0,1,0,2.73c-1.78,0-3.58.1-5.35.22A1.37,1.37,0,0,1,155.83,60.4Zm111,125.65a1.31,1.31,0,0,1-.31-1.15c.33-1.75.63-3.52.87-5.28a1.36,1.36,0,1,1,2.7.38c-.25,1.8-.55,3.62-.9,5.41a1.36,1.36,0,0,1-2.36.64ZM168.37,60.31a1.34,1.34,0,0,1-.34-1,1.36,1.36,0,0,1,1.43-1.29c1.83.1,3.67.24,5.48.43A1.36,1.36,0,0,1,176.16,60a1.38,1.38,0,0,1-1.5,1.22c-1.77-.18-3.56-.32-5.34-.41A1.34,1.34,0,0,1,168.37,60.31ZM268.44,173.63a1.37,1.37,0,0,1-.33-1c.13-1.76.21-3.56.25-5.34a1.36,1.36,0,1,1,2.72.06c0,1.82-.12,3.67-.26,5.48a1.35,1.35,0,0,1-1.45,1.26A1.37,1.37,0,0,1,268.44,173.63ZM180.82,61.69a1.32,1.32,0,0,1-.31-1.12,1.36,1.36,0,0,1,1.57-1.12c1.79.31,3.61.67,5.38,1.07a1.36,1.36,0,0,1,1,1.62,1.37,1.37,0,0,1-1.63,1c-1.74-.39-3.5-.74-5.25-1A1.4,1.4,0,0,1,180.82,61.69Zm87.79,99.4a1.35,1.35,0,0,1-.34-.83c-.08-1.77-.2-3.57-.38-5.34a1.37,1.37,0,1,1,2.72-.26c.17,1.81.3,3.66.39,5.48a1.36,1.36,0,0,1-1.3,1.42A1.34,1.34,0,0,1,268.61,161.09ZM193,64.53a1.36,1.36,0,0,1,1.42-2.2c1.74.51,3.5,1.08,5.21,1.68a1.37,1.37,0,1,1-.9,2.58c-1.67-.59-3.39-1.15-5.09-1.65A1.44,1.44,0,0,1,193,64.53Zm74.28,84.09A1.4,1.4,0,0,1,267,148c-.29-1.76-.63-3.53-1-5.26a1.37,1.37,0,0,1,2.67-.58c.39,1.78.73,3.59,1,5.4a1.36,1.36,0,0,1-2.37,1.11ZM204.8,68.78a1.35,1.35,0,0,1-.23-1.43,1.37,1.37,0,0,1,1.79-.72c1.67.72,3.35,1.5,5,2.3a1.36,1.36,0,1,1-1.21,2.44c-1.58-.78-3.22-1.53-4.85-2.23A1.32,1.32,0,0,1,204.8,68.78Zm59.72,67.61a1.44,1.44,0,0,1-.28-.52c-.49-1.71-1-3.42-1.62-5.1a1.36,1.36,0,1,1,2.57-.9c.6,1.73,1.16,3.49,1.67,5.24a1.37,1.37,0,0,1-2.34,1.28ZM216,74.4a1.37,1.37,0,0,1,1.71-2.08c1.58.92,3.16,1.89,4.68,2.88a1.36,1.36,0,0,1-1.48,2.29c-1.49-1-3-1.92-4.56-2.81A1.2,1.2,0,0,1,216,74.4Zm44.34,50.17a1.54,1.54,0,0,1-.23-.37c-.69-1.63-1.44-3.27-2.22-4.86a1.36,1.36,0,1,1,2.45-1.2c.8,1.64,1.57,3.32,2.28,5a1.37,1.37,0,0,1-.72,1.79A1.38,1.38,0,0,1,260.31,124.57ZM226.42,81.32a1.38,1.38,0,0,1-.06-1.72,1.37,1.37,0,0,1,1.91-.27c1.45,1.1,2.9,2.25,4.3,3.42a1.36,1.36,0,0,1-1.75,2.09c-1.36-1.14-2.77-2.26-4.19-3.33A1.29,1.29,0,0,1,226.42,81.32Zm28.31,32a1.77,1.77,0,0,1-.16-.22c-.88-1.54-1.82-3.07-2.78-4.57a1.36,1.36,0,0,1,2.29-1.48c1,1.54,1.95,3.12,2.86,4.69a1.37,1.37,0,0,1-2.21,1.58ZM236,89.43a1.36,1.36,0,0,1,2-1.88c1.32,1.26,2.62,2.57,3.87,3.89a1.37,1.37,0,0,1-2,1.88c-1.22-1.3-2.49-2.57-3.77-3.8Zm11.88,13.44-.06-.08c-1.06-1.42-2.17-2.84-3.31-4.21a1.36,1.36,0,1,1,2.1-1.74c1.17,1.41,2.31,2.86,3.39,4.32a1.36,1.36,0,0,1-2.12,1.71Z"/><path class="cls-1" d="M164.44,296.78l-2.76,0a1.67,1.67,0,0,1,.07-3.34c2.16.05,4.37,0,6.55,0a1.67,1.67,0,0,1,.09,3.34C167.08,296.76,165.75,296.78,164.44,296.78ZM153,296.29h-.15c-2.22-.19-4.47-.45-6.67-.75a1.67,1.67,0,0,1,.46-3.31c2.15.3,4.34.55,6.5.74a1.67,1.67,0,0,1-.14,3.33Zm24-.11a1.67,1.67,0,0,1-.16-3.33c2.16-.21,4.35-.47,6.5-.79a1.67,1.67,0,1,1,.48,3.3c-2.2.32-4.44.6-6.66.81Zm-39.16-2.13a2.07,2.07,0,0,1-.35,0c-2.18-.46-4.38-1-6.53-1.54a1.67,1.67,0,0,1,.84-3.23c2.11.56,4.25,1.06,6.37,1.5a1.67,1.67,0,0,1-.33,3.3Zm54.3-.24a1.67,1.67,0,0,1-.36-3.3c2.13-.46,4.27-1,6.36-1.56a1.67,1.67,0,1,1,.88,3.22c-2.15.58-4.34,1.12-6.53,1.6A2.21,2.21,0,0,1,192.17,293.81ZM123.08,290a1.7,1.7,0,0,1-.54-.09c-2.11-.71-4.24-1.49-6.32-2.31a1.67,1.67,0,0,1,1.23-3.1c2,.8,4.1,1.56,6.16,2.26a1.66,1.66,0,0,1-.53,3.24Zm83.84-.38a1.67,1.67,0,0,1-.55-3.24c2-.71,4.11-1.49,6.13-2.31a1.67,1.67,0,1,1,1.25,3.09c-2.07.84-4.18,1.64-6.28,2.37A1.76,1.76,0,0,1,206.92,289.65Zm-98.07-5.38a1.68,1.68,0,0,1-.72-.16c-2-1-4-2-6-3.05a1.66,1.66,0,1,1,1.58-2.93c1.92,1,3.88,2,5.84,3a1.67,1.67,0,0,1-.71,3.17Zm112.21-.5a1.67,1.67,0,0,1-.73-3.17c1.95-1,3.9-2,5.8-3a1.67,1.67,0,0,1,1.61,2.92c-2,1.08-4,2.12-6,3.09A1.7,1.7,0,0,1,221.06,283.77ZM95.41,276.86a1.73,1.73,0,0,1-.89-.26c-1.88-1.19-3.76-2.45-5.58-3.74a1.66,1.66,0,0,1-.41-2.32,1.68,1.68,0,0,1,2.33-.4c1.77,1.25,3.61,2.48,5.44,3.64a1.67,1.67,0,0,1-.89,3.08Zm139-.6a1.67,1.67,0,0,1-.9-3.07c1.83-1.18,3.64-2.42,5.4-3.68a1.67,1.67,0,1,1,1.95,2.7c-1.81,1.3-3.67,2.57-5.55,3.78A1.66,1.66,0,0,1,234.4,276.26ZM83,267.91a1.66,1.66,0,0,1-1-.37c-1.73-1.4-3.45-2.87-5.11-4.37A1.66,1.66,0,0,1,79,260.7c1.62,1.45,3.29,2.88,5,4.25a1.67,1.67,0,0,1-1.05,3Zm163.81-.69a1.67,1.67,0,0,1-1.06-3c1.67-1.38,3.33-2.83,4.93-4.29a1.67,1.67,0,0,1,2.26,2.46c-1.65,1.5-3.35,3-5.07,4.4A1.66,1.66,0,0,1,246.77,267.22ZM71.64,257.57a1.64,1.64,0,0,1-1.19-.51c-1.56-1.6-3.09-3.26-4.56-4.93a1.67,1.67,0,0,1,2.51-2.2c1.43,1.63,2.92,3.25,4.44,4.81a1.67,1.67,0,0,1-1.2,2.83ZM258,256.78a1.65,1.65,0,0,1-1.15-.46,1.67,1.67,0,0,1-.06-2.36c1.51-1.57,3-3.2,4.41-4.85a1.67,1.67,0,0,1,2.52,2.18c-1.45,1.69-3,3.36-4.52,5A1.61,1.61,0,0,1,258,256.78ZM61.63,246a1.65,1.65,0,0,1-1.32-.66c-1.36-1.77-2.69-3.59-4-5.43A1.67,1.67,0,0,1,59.11,238c1.23,1.79,2.52,3.57,3.84,5.3a1.66,1.66,0,0,1-.31,2.33A1.61,1.61,0,0,1,61.63,246Zm206.28-.88a1.66,1.66,0,0,1-1.33-2.67c1.31-1.74,2.58-3.53,3.8-5.33a1.66,1.66,0,1,1,2.76,1.86c-1.24,1.85-2.56,3.69-3.9,5.48A1.65,1.65,0,0,1,267.91,245.09ZM53.05,233.28a1.68,1.68,0,0,1-1.43-.82c-1.14-1.91-2.24-3.89-3.27-5.86a1.67,1.67,0,0,1,2.95-1.55c1,1.92,2.08,3.84,3.19,5.71A1.67,1.67,0,0,1,53.9,233,1.63,1.63,0,0,1,53.05,233.28Zm223.34-1a1.61,1.61,0,0,1-.84-.23,1.67,1.67,0,0,1-.6-2.28c1.09-1.88,2.15-3.81,3.14-5.74a1.67,1.67,0,0,1,3,1.52c-1,2-2.11,4-3.23,5.9A1.67,1.67,0,0,1,276.39,232.31ZM46,219.67a1.66,1.66,0,0,1-1.52-1c-.9-2-1.76-4.12-2.55-6.2a1.66,1.66,0,1,1,3.11-1.19c.77,2,1.61,4.06,2.49,6a1.68,1.68,0,0,1-.85,2.2A1.8,1.8,0,0,1,46,219.67Zm237.26-1.06a1.7,1.7,0,0,1-.66-.14,1.65,1.65,0,0,1-.87-2.19c.86-2,1.68-4.05,2.44-6.09a1.66,1.66,0,0,1,3.12,1.16c-.78,2.1-1.62,4.2-2.5,6.25A1.68,1.68,0,0,1,283.3,218.61ZM40.69,205.32a1.66,1.66,0,0,1-1.59-1.18c-.65-2.13-1.26-4.31-1.8-6.47a1.67,1.67,0,0,1,3.24-.81c.52,2.11,1.11,4.23,1.75,6.31a1.67,1.67,0,0,1-1.11,2.08A1.61,1.61,0,0,1,40.69,205.32Zm247.83-1.13a1.84,1.84,0,0,1-.47-.07,1.66,1.66,0,0,1-1.13-2.07c.62-2.09,1.19-4.21,1.7-6.33a1.67,1.67,0,1,1,3.24.78c-.52,2.17-1.11,4.35-1.74,6.49A1.67,1.67,0,0,1,288.52,204.19ZM37.09,190.43a1.68,1.68,0,0,1-1.64-1.38c-.39-2.19-.74-4.42-1-6.63a1.67,1.67,0,1,1,3.31-.42c.27,2.15.61,4.33,1,6.46a1.66,1.66,0,0,1-1.34,1.94ZM292,189.26a1.27,1.27,0,0,1-.28,0,1.67,1.67,0,0,1-1.37-1.92c.37-2.14.68-4.31.93-6.48a1.67,1.67,0,0,1,3.32.39c-.27,2.22-.59,4.46-1,6.65A1.67,1.67,0,0,1,292,189.26Zm-256.71-14a1.66,1.66,0,0,1-1.66-1.57c-.14-2.22-.21-4.48-.23-6.71A1.66,1.66,0,0,1,35,165.25h0a1.66,1.66,0,0,1,1.67,1.65c0,2.17.1,4.37.22,6.54a1.67,1.67,0,0,1-1.56,1.77ZM293.66,174h-.09a1.67,1.67,0,0,1-1.58-1.75c.11-2.16.17-4.37.17-6.54v-.29a1.66,1.66,0,0,1,1.66-1.67h0a1.66,1.66,0,0,1,1.67,1.66v.3c0,2.23-.05,4.49-.17,6.71A1.66,1.66,0,0,1,293.66,174ZM35.26,159.88h-.09a1.67,1.67,0,0,1-1.57-1.76c.13-2.23.31-4.48.55-6.69a1.67,1.67,0,0,1,3.32.36c-.24,2.15-.42,4.35-.54,6.52A1.67,1.67,0,0,1,35.26,159.88Zm258.26-1.48a1.66,1.66,0,0,1-1.66-1.55c-.15-2.17-.36-4.36-.62-6.51a1.67,1.67,0,1,1,3.31-.4c.27,2.21.48,4.46.63,6.68a1.67,1.67,0,0,1-1.55,1.78ZM37,144.66l-.29,0a1.68,1.68,0,0,1-1.35-1.94c.39-2.19.84-4.41,1.34-6.58a1.67,1.67,0,1,1,3.25.75c-.49,2.12-.93,4.27-1.31,6.41A1.67,1.67,0,0,1,37,144.66Zm254.53-1.45a1.67,1.67,0,0,1-1.64-1.36c-.4-2.13-.87-4.29-1.38-6.4a1.67,1.67,0,0,1,3.24-.79c.52,2.17,1,4.38,1.42,6.57a1.68,1.68,0,0,1-1.33,2Zm-251-13.45a1.73,1.73,0,0,1-.49-.08A1.66,1.66,0,0,1,39,127.61c.65-2.14,1.37-4.29,2.13-6.39a1.66,1.66,0,0,1,2.13-1,1.68,1.68,0,0,1,1,2.14c-.74,2.05-1.43,4.14-2.07,6.22A1.67,1.67,0,0,1,40.61,129.76Zm247.22-1.42a1.66,1.66,0,0,1-1.59-1.16c-.66-2.07-1.37-4.15-2.14-6.19a1.67,1.67,0,0,1,3.13-1.17c.78,2.09,1.51,4.23,2.19,6.35a1.68,1.68,0,0,1-1.09,2.1A1.77,1.77,0,0,1,287.83,128.34Zm-241.89-13a1.75,1.75,0,0,1-.67-.14,1.68,1.68,0,0,1-.86-2.2c.9-2,1.87-4.09,2.87-6.09a1.67,1.67,0,1,1,3,1.5c-1,1.95-1.92,3.94-2.8,5.93A1.65,1.65,0,0,1,45.94,115.36ZM282.35,114a1.66,1.66,0,0,1-1.52-1c-.89-2-1.85-4-2.85-5.88a1.67,1.67,0,0,1,3-1.53c1,2,2,4,2.93,6a1.67,1.67,0,0,1-.83,2.2A1.57,1.57,0,0,1,282.35,114ZM52.94,101.7a1.66,1.66,0,0,1-1.43-2.51c1.13-1.92,2.33-3.84,3.56-5.7a1.67,1.67,0,0,1,2.78,1.84c-1.2,1.82-2.37,3.68-3.47,5.55A1.66,1.66,0,0,1,52.94,101.7Zm222.27-1.2a1.67,1.67,0,0,1-1.42-.8c-1.13-1.86-2.31-3.71-3.53-5.51A1.67,1.67,0,0,1,273,92.32c1.25,1.85,2.47,3.75,3.62,5.65a1.67,1.67,0,0,1-.56,2.29A1.7,1.7,0,0,1,275.21,100.5ZM61.51,89a1.64,1.64,0,0,1-1-.34,1.66,1.66,0,0,1-.32-2.34c1.35-1.77,2.77-3.53,4.21-5.23a1.67,1.67,0,0,1,2.55,2.15c-1.41,1.66-2.79,3.38-4.11,5.11A1.64,1.64,0,0,1,61.51,89Zm205-1.09a1.67,1.67,0,0,1-1.31-.64c-1.34-1.72-2.74-3.42-4.16-5.06A1.67,1.67,0,1,1,263.57,80c1.46,1.68,2.89,3.43,4.27,5.19a1.68,1.68,0,0,1-.29,2.34A1.73,1.73,0,0,1,266.52,87.89Zm-195-10.53a1.63,1.63,0,0,1-1.16-.47,1.66,1.66,0,0,1,0-2.35c1.56-1.61,3.17-3.19,4.8-4.71a1.67,1.67,0,0,1,2.27,2.44c-1.59,1.48-3.16,3-4.67,4.59A1.69,1.69,0,0,1,71.51,77.36Zm184.89-1a1.63,1.63,0,0,1-1.18-.49c-1.53-1.55-3.12-3.07-4.73-4.54a1.67,1.67,0,0,1,2.25-2.46c1.65,1.5,3.28,3.07,4.85,4.65a1.67,1.67,0,0,1,0,2.36A1.64,1.64,0,0,1,256.4,76.38ZM82.81,67a1.67,1.67,0,0,1-1.06-3c1.73-1.4,3.52-2.78,5.31-4.1a1.67,1.67,0,1,1,2,2.69c-1.75,1.28-3.49,2.63-5.17,4A1.66,1.66,0,0,1,82.81,67ZM245,66.14a1.66,1.66,0,0,1-1-.36c-1.7-1.36-3.46-2.69-5.23-4a1.67,1.67,0,0,1,1.94-2.71c1.81,1.3,3.62,2.66,5.36,4.05a1.67,1.67,0,0,1,.27,2.34A1.69,1.69,0,0,1,245,66.14ZM95.24,58.05a1.67,1.67,0,0,1-.9-3.07c1.88-1.2,3.82-2.36,5.76-3.45a1.67,1.67,0,1,1,1.64,2.9c-1.89,1.07-3.78,2.2-5.61,3.36A1.64,1.64,0,0,1,95.24,58.05Zm137.22-.74a1.66,1.66,0,0,1-.88-.25c-1.85-1.15-3.76-2.26-5.66-3.31a1.67,1.67,0,1,1,1.61-2.92c1.95,1.08,3.9,2.22,5.8,3.39a1.67,1.67,0,0,1-.87,3.09ZM108.63,50.63a1.67,1.67,0,0,1-.72-3.17c2-1,4.06-1.88,6.12-2.74a1.67,1.67,0,1,1,1.28,3.08c-2,.83-4,1.73-6,2.67A1.71,1.71,0,0,1,108.63,50.63ZM219,50a1.62,1.62,0,0,1-.7-.16c-2-.91-4-1.79-6-2.61a1.67,1.67,0,1,1,1.25-3.09c2.07.84,4.14,1.74,6.17,2.68A1.67,1.67,0,0,1,219,50Zm-96.16-5.16a1.67,1.67,0,0,1-.53-3.25c2.11-.72,4.27-1.39,6.41-2a1.67,1.67,0,0,1,.91,3.21c-2.09.59-4.19,1.25-6.25,2A1.7,1.7,0,0,1,122.79,44.86Zm81.89-.47a1.54,1.54,0,0,1-.52-.09c-2.07-.67-4.17-1.3-6.27-1.87a1.67,1.67,0,1,1,.87-3.22c2.15.59,4.32,1.23,6.43,1.93a1.67,1.67,0,0,1-.51,3.25ZM137.57,40.8a1.67,1.67,0,0,1-.34-3.3c2.18-.46,4.4-.87,6.6-1.22a1.67,1.67,0,0,1,.52,3.3c-2.14.34-4.31.74-6.43,1.18A1.39,1.39,0,0,1,137.57,40.8Zm52.28-.3a1.84,1.84,0,0,1-.33,0c-2.12-.42-4.29-.8-6.44-1.11a1.67,1.67,0,0,1,.48-3.3c2.21.32,4.43.71,6.62,1.14a1.67,1.67,0,0,1-.33,3.3Zm-37.12-2a1.67,1.67,0,0,1-.15-3.33c2.22-.2,4.47-.34,6.7-.43a1.67,1.67,0,0,1,.13,3.33c-2.17.09-4.37.23-6.53.42Zm21.94-.12h-.13c-2.16-.17-4.36-.28-6.54-.34a1.67,1.67,0,0,1,.09-3.34c2.24.07,4.49.18,6.71.36a1.67,1.67,0,0,1-.13,3.33Z"/><path class="cls-1" d="M253.9,263.64a3.12,3.12,0,0,1-3.11-5.26A126.47,126.47,0,0,0,285,125l-.09-.26a3.13,3.13,0,0,1,1.94-4h0a3.11,3.11,0,0,1,3.95,2l.1.3A132.69,132.69,0,0,1,255,263,3.07,3.07,0,0,1,253.9,263.64ZM59.64,92.94a3.12,3.12,0,0,1-2.52-5A132.75,132.75,0,0,1,192,36.08a3.12,3.12,0,1,1-1.3,6.11A126.52,126.52,0,0,0,62.18,91.65,3.12,3.12,0,0,1,59.64,92.94Z"/><path class="cls-1" d="M190.94,295.78a3.13,3.13,0,0,1-.63-6.19,125.06,125.06,0,0,0,46.1-19.75A3.12,3.12,0,0,1,240,275a131.21,131.21,0,0,1-48.39,20.73A2.7,2.7,0,0,1,190.94,295.78Zm-72.1-5.67a3.34,3.34,0,0,1-1.11-.2A131.89,131.89,0,0,1,73.2,261.84a3.13,3.13,0,1,1,4.31-4.53A125.55,125.55,0,0,0,120,284.06a3.13,3.13,0,0,1-1.11,6.05ZM39,200.16a3.14,3.14,0,0,1-3-2.37,133.63,133.63,0,0,1-2.23-52.59,3.12,3.12,0,1,1,6.17,1,127.46,127.46,0,0,0,2.13,50.12,3.12,3.12,0,0,1-2.28,3.78A3.27,3.27,0,0,1,39,200.16ZM273.68,99.37a3.1,3.1,0,0,1-2.63-1.44,126.39,126.39,0,0,0-34.88-36.06,3.13,3.13,0,0,1,3.55-5.15,132.44,132.44,0,0,1,36.59,37.84,3.12,3.12,0,0,1-2.63,4.81Z"/></svg>